<svg width="208" height="54" viewBox="0 0 208 54" fill="none" xmlns="http://www.w3.org/2000/svg">
<path d="M207.8 0.389099H0.200195V53.6109H207.8V0.389099Z" fill="white"/>
<path fill-rule="evenodd" clip-rule="evenodd" d="M51.2931 19.2803C53.8223 10.2706 46.486 7.52567 38.7704 7.52567C30.952 7.52567 22.6666 9.96032 20.3715 18.8143C19.5169 22.8532 20.6472 26.2705 24.0737 27.9278C31.4433 31.5008 39.3401 30.4132 38.2617 35.4878C37.7347 37.9732 34.4212 39.2165 32.0304 39.2165C28.3017 39.2165 26.1277 37.2997 26.9212 33.7786H16.5656C14.5634 43.9278 21.6921 46.4743 30.3915 46.4743C39.0379 46.4743 47.599 42.7376 49.2736 34.8662C51.4142 24.7689 42.4391 24.1473 36.5099 22.543C33.9207 21.8176 30.7963 20.9376 31.3753 18.1927C31.772 16.3289 34.1709 14.7754 36.5525 14.7754C38.3136 14.7754 39.5731 15.1895 40.2893 15.9668C41.0574 16.743 41.2904 17.8305 40.9374 19.2803H51.2931ZM81.2481 45.6889L82.7936 38.4392H64.6704L66.3531 30.517H83.0266L84.5628 23.2673H67.8893L69.5281 15.5516H87.6525L89.1968 8.303H60.7168L52.7693 45.6889H81.2481ZM87.1001 45.6889H96.42L102.505 17.0532H102.608L109.21 45.6889H123.553L131.502 8.303H122.182L116.278 36.0576L116.157 36.1614L109.547 8.303H95.0476L87.1001 45.6889ZM137.741 45.6889L141.728 38.3873H156.9L157.832 45.6889H169.535L162.725 8.303H150.091L127.385 45.6889H137.741ZM145.905 31.1375L154.285 15.6035H154.441L155.899 31.1375H145.905ZM183.826 45.6889L191.775 8.303H181.418L173.471 45.6889H183.826Z" fill="black"/>
<path fill-rule="evenodd" clip-rule="evenodd" d="M0.200195 26.4449H11.0787V27.5562H0.200195V26.4449Z" fill="black"/>
<path fill-rule="evenodd" clip-rule="evenodd" d="M0.200195 17.4456H11.0787V18.5569H0.200195V17.4456Z" fill="black"/>
<path fill-rule="evenodd" clip-rule="evenodd" d="M0.200195 8.44754H11.0787V9.55885H0.200195V8.44754Z" fill="black"/>
<path fill-rule="evenodd" clip-rule="evenodd" d="M0.200195 35.443H11.0787V36.5544H0.200195V35.443Z" fill="black"/>
<path fill-rule="evenodd" clip-rule="evenodd" d="M0.200195 44.4411H11.0787V45.5524H0.200195V44.4411Z" fill="black"/>
<path fill-rule="evenodd" clip-rule="evenodd" d="M196.922 26.4449H207.8V27.5562H196.922V26.4449Z" fill="black"/>
<path fill-rule="evenodd" clip-rule="evenodd" d="M196.922 17.4456H207.8V18.5569H196.922V17.4456Z" fill="black"/>
<path fill-rule="evenodd" clip-rule="evenodd" d="M196.922 8.44754H207.8V9.55885H196.922V8.44754Z" fill="black"/>
<path fill-rule="evenodd" clip-rule="evenodd" d="M196.922 35.443H207.8V36.5544H196.922V35.443Z" fill="black"/>
<path fill-rule="evenodd" clip-rule="evenodd" d="M196.922 44.4411H207.8V45.5524H196.922V44.4411Z" fill="black"/>
</svg>
