<svg width="1728" height="1134" viewBox="0 0 1728 1134" fill="none" xmlns="http://www.w3.org/2000/svg">
<rect width="1728" height="1134" fill="#212121"/>
<ellipse cx="6" cy="5" rx="6" ry="5" fill="#838383" fill-opacity="0.22"/>
<ellipse cx="6" cy="25" rx="6" ry="5" fill="#838383" fill-opacity="0.22"/>
<ellipse cx="6" cy="45" rx="6" ry="5" fill="#838383" fill-opacity="0.22"/>
<ellipse cx="6" cy="65" rx="6" ry="5" fill="#838383" fill-opacity="0.22"/>
<ellipse cx="6" cy="85" rx="6" ry="5" fill="#838383" fill-opacity="0.22"/>
<ellipse cx="6" cy="105" rx="6" ry="5" fill="#838383" fill-opacity="0.22"/>
<ellipse cx="6" cy="125" rx="6" ry="5" fill="#838383" fill-opacity="0.22"/>
<ellipse cx="6" cy="145" rx="6" ry="5" fill="#838383" fill-opacity="0.22"/>
<ellipse cx="6" cy="165" rx="6" ry="5" fill="#838383" fill-opacity="0.22"/>
<ellipse cx="6" cy="185" rx="6" ry="5" fill="#838383" fill-opacity="0.22"/>
<ellipse cx="6" cy="205" rx="6" ry="5" fill="#838383" fill-opacity="0.22"/>
<ellipse cx="6" cy="225" rx="6" ry="5" fill="#838383" fill-opacity="0.22"/>
<ellipse cx="6" cy="245" rx="6" ry="5" fill="#838383" fill-opacity="0.22"/>
<ellipse cx="6" cy="265" rx="6" ry="5" fill="#838383" fill-opacity="0.22"/>
<ellipse cx="6" cy="285" rx="6" ry="5" fill="#838383" fill-opacity="0.22"/>
<ellipse cx="6" cy="305" rx="6" ry="5" fill="#838383" fill-opacity="0.22"/>
<ellipse cx="6" cy="325" rx="6" ry="5" fill="#838383" fill-opacity="0.22"/>
<ellipse cx="6" cy="345" rx="6" ry="5" fill="#838383" fill-opacity="0.22"/>
<ellipse cx="6" cy="365" rx="6" ry="5" fill="#838383" fill-opacity="0.22"/>
<ellipse cx="26" cy="5" rx="6" ry="5" fill="#838383" fill-opacity="0.22"/>
<ellipse cx="26" cy="25" rx="6" ry="5" fill="#838383" fill-opacity="0.22"/>
<ellipse cx="26" cy="45" rx="6" ry="5" fill="#838383" fill-opacity="0.22"/>
<ellipse cx="26" cy="65" rx="6" ry="5" fill="#838383" fill-opacity="0.22"/>
<ellipse cx="26" cy="85" rx="6" ry="5" fill="#838383" fill-opacity="0.22"/>
<ellipse cx="26" cy="105" rx="6" ry="5" fill="#838383" fill-opacity="0.22"/>
<ellipse cx="26" cy="125" rx="6" ry="5" fill="#838383" fill-opacity="0.22"/>
<ellipse cx="26" cy="145" rx="6" ry="5" fill="#838383" fill-opacity="0.22"/>
<ellipse cx="26" cy="165" rx="6" ry="5" fill="#838383" fill-opacity="0.22"/>
<ellipse cx="26" cy="185" rx="6" ry="5" fill="#838383" fill-opacity="0.22"/>
<ellipse cx="26" cy="205" rx="6" ry="5" fill="#838383" fill-opacity="0.22"/>
<ellipse cx="26" cy="225" rx="6" ry="5" fill="#838383" fill-opacity="0.22"/>
<ellipse cx="26" cy="245" rx="6" ry="5" fill="#838383" fill-opacity="0.22"/>
<ellipse cx="26" cy="265" rx="6" ry="5" fill="#838383" fill-opacity="0.22"/>
<ellipse cx="26" cy="285" rx="6" ry="5" fill="#838383" fill-opacity="0.22"/>
<ellipse cx="26" cy="305" rx="6" ry="5" fill="#838383" fill-opacity="0.22"/>
<ellipse cx="26" cy="325" rx="6" ry="5" fill="#838383" fill-opacity="0.22"/>
<ellipse cx="26" cy="345" rx="6" ry="5" fill="#838383" fill-opacity="0.22"/>
<ellipse cx="26" cy="365" rx="6" ry="5" fill="#838383" fill-opacity="0.22"/>
<ellipse cx="46" cy="5" rx="6" ry="5" fill="#838383" fill-opacity="0.22"/>
<ellipse cx="46" cy="25" rx="6" ry="5" fill="#838383" fill-opacity="0.22"/>
<ellipse cx="46" cy="45" rx="6" ry="5" fill="#838383" fill-opacity="0.22"/>
<ellipse cx="46" cy="65" rx="6" ry="5" fill="#838383" fill-opacity="0.22"/>
<ellipse cx="46" cy="85" rx="6" ry="5" fill="#838383" fill-opacity="0.22"/>
<ellipse cx="46" cy="105" rx="6" ry="5" fill="#838383" fill-opacity="0.22"/>
<ellipse cx="46" cy="125" rx="6" ry="5" fill="#838383" fill-opacity="0.22"/>
<ellipse cx="46" cy="145" rx="6" ry="5" fill="#838383" fill-opacity="0.22"/>
<ellipse cx="46" cy="165" rx="6" ry="5" fill="#838383" fill-opacity="0.22"/>
<ellipse cx="46" cy="185" rx="6" ry="5" fill="#838383" fill-opacity="0.22"/>
<ellipse cx="46" cy="205" rx="6" ry="5" fill="#838383" fill-opacity="0.22"/>
<ellipse cx="46" cy="225" rx="6" ry="5" fill="#838383" fill-opacity="0.22"/>
<ellipse cx="46" cy="245" rx="6" ry="5" fill="#838383" fill-opacity="0.22"/>
<ellipse cx="46" cy="265" rx="6" ry="5" fill="#838383" fill-opacity="0.22"/>
<ellipse cx="46" cy="285" rx="6" ry="5" fill="#838383" fill-opacity="0.22"/>
<ellipse cx="46" cy="305" rx="6" ry="5" fill="#838383" fill-opacity="0.22"/>
<ellipse cx="46" cy="325" rx="6" ry="5" fill="#838383" fill-opacity="0.22"/>
<ellipse cx="46" cy="345" rx="6" ry="5" fill="#838383" fill-opacity="0.22"/>
<ellipse cx="46" cy="365" rx="6" ry="5" fill="#838383" fill-opacity="0.22"/>
<ellipse cx="66" cy="5" rx="6" ry="5" fill="#838383" fill-opacity="0.22"/>
<ellipse cx="66" cy="25" rx="6" ry="5" fill="#838383" fill-opacity="0.22"/>
<ellipse cx="66" cy="45" rx="6" ry="5" fill="#838383" fill-opacity="0.22"/>
<ellipse cx="66" cy="65" rx="6" ry="5" fill="#838383" fill-opacity="0.22"/>
<ellipse cx="66" cy="85" rx="6" ry="5" fill="#838383" fill-opacity="0.22"/>
<ellipse cx="66" cy="105" rx="6" ry="5" fill="#838383" fill-opacity="0.22"/>
<ellipse cx="66" cy="125" rx="6" ry="5" fill="#838383" fill-opacity="0.22"/>
<ellipse cx="66" cy="145" rx="6" ry="5" fill="#838383" fill-opacity="0.22"/>
<ellipse cx="66" cy="165" rx="6" ry="5" fill="#838383" fill-opacity="0.22"/>
<ellipse cx="66" cy="185" rx="6" ry="5" fill="#838383" fill-opacity="0.22"/>
<ellipse cx="66" cy="205" rx="6" ry="5" fill="#838383" fill-opacity="0.22"/>
<ellipse cx="66" cy="225" rx="6" ry="5" fill="#838383" fill-opacity="0.22"/>
<ellipse cx="66" cy="245" rx="6" ry="5" fill="#838383" fill-opacity="0.22"/>
<ellipse cx="66" cy="265" rx="6" ry="5" fill="#838383" fill-opacity="0.22"/>
<ellipse cx="66" cy="285" rx="6" ry="5" fill="#838383" fill-opacity="0.22"/>
<ellipse cx="66" cy="305" rx="6" ry="5" fill="#838383" fill-opacity="0.22"/>
<ellipse cx="66" cy="325" rx="6" ry="5" fill="#838383" fill-opacity="0.22"/>
<ellipse cx="66" cy="345" rx="6" ry="5" fill="#838383" fill-opacity="0.22"/>
<ellipse cx="66" cy="365" rx="6" ry="5" fill="#838383" fill-opacity="0.22"/>
<ellipse cx="86" cy="5" rx="6" ry="5" fill="#838383" fill-opacity="0.22"/>
<ellipse cx="86" cy="25" rx="6" ry="5" fill="#838383" fill-opacity="0.22"/>
<ellipse cx="86" cy="45" rx="6" ry="5" fill="#838383" fill-opacity="0.22"/>
<ellipse cx="86" cy="65" rx="6" ry="5" fill="#838383" fill-opacity="0.22"/>
<ellipse cx="86" cy="85" rx="6" ry="5" fill="#838383" fill-opacity="0.22"/>
<ellipse cx="86" cy="105" rx="6" ry="5" fill="#838383" fill-opacity="0.22"/>
<ellipse cx="86" cy="125" rx="6" ry="5" fill="#838383" fill-opacity="0.22"/>
<ellipse cx="86" cy="145" rx="6" ry="5" fill="#838383" fill-opacity="0.22"/>
<ellipse cx="86" cy="165" rx="6" ry="5" fill="#838383" fill-opacity="0.22"/>
<ellipse cx="86" cy="185" rx="6" ry="5" fill="#838383" fill-opacity="0.22"/>
<ellipse cx="86" cy="205" rx="6" ry="5" fill="#838383" fill-opacity="0.22"/>
<ellipse cx="86" cy="225" rx="6" ry="5" fill="#838383" fill-opacity="0.22"/>
<ellipse cx="86" cy="245" rx="6" ry="5" fill="#838383" fill-opacity="0.22"/>
<ellipse cx="86" cy="265" rx="6" ry="5" fill="#838383" fill-opacity="0.22"/>
<ellipse cx="86" cy="285" rx="6" ry="5" fill="#838383" fill-opacity="0.22"/>
<ellipse cx="86" cy="305" rx="6" ry="5" fill="#838383" fill-opacity="0.22"/>
<ellipse cx="86" cy="325" rx="6" ry="5" fill="#838383" fill-opacity="0.22"/>
<ellipse cx="86" cy="345" rx="6" ry="5" fill="#838383" fill-opacity="0.22"/>
<ellipse cx="86" cy="365" rx="6" ry="5" fill="#838383" fill-opacity="0.22"/>
<ellipse cx="106" cy="5" rx="6" ry="5" fill="#838383" fill-opacity="0.22"/>
<ellipse cx="106" cy="25" rx="6" ry="5" fill="#838383" fill-opacity="0.22"/>
<ellipse cx="106" cy="45" rx="6" ry="5" fill="#838383" fill-opacity="0.22"/>
<ellipse cx="106" cy="65" rx="6" ry="5" fill="#838383" fill-opacity="0.22"/>
<ellipse cx="106" cy="85" rx="6" ry="5" fill="#838383" fill-opacity="0.22"/>
<ellipse cx="106" cy="105" rx="6" ry="5" fill="#838383" fill-opacity="0.22"/>
<ellipse cx="106" cy="125" rx="6" ry="5" fill="#838383" fill-opacity="0.22"/>
<ellipse cx="106" cy="145" rx="6" ry="5" fill="#838383" fill-opacity="0.22"/>
<ellipse cx="106" cy="165" rx="6" ry="5" fill="#838383" fill-opacity="0.22"/>
<ellipse cx="106" cy="185" rx="6" ry="5" fill="#838383" fill-opacity="0.22"/>
<ellipse cx="106" cy="205" rx="6" ry="5" fill="#838383" fill-opacity="0.22"/>
<ellipse cx="106" cy="225" rx="6" ry="5" fill="#838383" fill-opacity="0.22"/>
<ellipse cx="106" cy="245" rx="6" ry="5" fill="#838383" fill-opacity="0.22"/>
<ellipse cx="106" cy="265" rx="6" ry="5" fill="#838383" fill-opacity="0.22"/>
<ellipse cx="106" cy="285" rx="6" ry="5" fill="#838383" fill-opacity="0.22"/>
<ellipse cx="106" cy="305" rx="6" ry="5" fill="#838383" fill-opacity="0.22"/>
<ellipse cx="106" cy="325" rx="6" ry="5" fill="#838383" fill-opacity="0.22"/>
<ellipse cx="106" cy="345" rx="6" ry="5" fill="#838383" fill-opacity="0.22"/>
<ellipse cx="106" cy="365" rx="6" ry="5" fill="#838383" fill-opacity="0.22"/>
<ellipse cx="126" cy="5" rx="6" ry="5" fill="#838383" fill-opacity="0.22"/>
<ellipse cx="126" cy="25" rx="6" ry="5" fill="#838383" fill-opacity="0.22"/>
<ellipse cx="126" cy="45" rx="6" ry="5" fill="#838383" fill-opacity="0.22"/>
<ellipse cx="126" cy="65" rx="6" ry="5" fill="#838383" fill-opacity="0.22"/>
<ellipse cx="126" cy="85" rx="6" ry="5" fill="#838383" fill-opacity="0.22"/>
<ellipse cx="126" cy="105" rx="6" ry="5" fill="#838383" fill-opacity="0.22"/>
<ellipse cx="126" cy="125" rx="6" ry="5" fill="#838383" fill-opacity="0.22"/>
<ellipse cx="126" cy="145" rx="6" ry="5" fill="#838383" fill-opacity="0.22"/>
<ellipse cx="126" cy="165" rx="6" ry="5" fill="#838383" fill-opacity="0.22"/>
<ellipse cx="126" cy="185" rx="6" ry="5" fill="#838383" fill-opacity="0.22"/>
<ellipse cx="126" cy="205" rx="6" ry="5" fill="#838383" fill-opacity="0.22"/>
<ellipse cx="126" cy="225" rx="6" ry="5" fill="#838383" fill-opacity="0.22"/>
<ellipse cx="126" cy="245" rx="6" ry="5" fill="#838383" fill-opacity="0.22"/>
<ellipse cx="126" cy="265" rx="6" ry="5" fill="#838383" fill-opacity="0.22"/>
<ellipse cx="126" cy="285" rx="6" ry="5" fill="#838383" fill-opacity="0.22"/>
<ellipse cx="126" cy="305" rx="6" ry="5" fill="#838383" fill-opacity="0.22"/>
<ellipse cx="126" cy="325" rx="6" ry="5" fill="#838383" fill-opacity="0.22"/>
<ellipse cx="126" cy="345" rx="6" ry="5" fill="#838383" fill-opacity="0.22"/>
<ellipse cx="126" cy="365" rx="6" ry="5" fill="#838383" fill-opacity="0.22"/>
<ellipse cx="146" cy="5" rx="6" ry="5" fill="#838383" fill-opacity="0.22"/>
<ellipse cx="146" cy="25" rx="6" ry="5" fill="#838383" fill-opacity="0.22"/>
<ellipse cx="146" cy="45" rx="6" ry="5" fill="#838383" fill-opacity="0.22"/>
<ellipse cx="146" cy="65" rx="6" ry="5" fill="#838383" fill-opacity="0.22"/>
<ellipse cx="146" cy="85" rx="6" ry="5" fill="#838383" fill-opacity="0.22"/>
<ellipse cx="146" cy="105" rx="6" ry="5" fill="#838383" fill-opacity="0.22"/>
<ellipse cx="146" cy="125" rx="6" ry="5" fill="#838383" fill-opacity="0.22"/>
<ellipse cx="146" cy="145" rx="6" ry="5" fill="#838383" fill-opacity="0.22"/>
<ellipse cx="146" cy="165" rx="6" ry="5" fill="#838383" fill-opacity="0.22"/>
<ellipse cx="146" cy="185" rx="6" ry="5" fill="#838383" fill-opacity="0.22"/>
<ellipse cx="146" cy="205" rx="6" ry="5" fill="#838383" fill-opacity="0.22"/>
<ellipse cx="146" cy="225" rx="6" ry="5" fill="#838383" fill-opacity="0.22"/>
<ellipse cx="146" cy="245" rx="6" ry="5" fill="#838383" fill-opacity="0.22"/>
<ellipse cx="146" cy="265" rx="6" ry="5" fill="#838383" fill-opacity="0.22"/>
<ellipse cx="146" cy="285" rx="6" ry="5" fill="#838383" fill-opacity="0.22"/>
<ellipse cx="146" cy="305" rx="6" ry="5" fill="#838383" fill-opacity="0.22"/>
<ellipse cx="146" cy="325" rx="6" ry="5" fill="#838383" fill-opacity="0.22"/>
<ellipse cx="146" cy="345" rx="6" ry="5" fill="#838383" fill-opacity="0.22"/>
<ellipse cx="146" cy="365" rx="6" ry="5" fill="#838383" fill-opacity="0.22"/>
<ellipse cx="166" cy="5" rx="6" ry="5" fill="#838383" fill-opacity="0.22"/>
<ellipse cx="166" cy="25" rx="6" ry="5" fill="#838383" fill-opacity="0.22"/>
<ellipse cx="166" cy="45" rx="6" ry="5" fill="#838383" fill-opacity="0.22"/>
<ellipse cx="166" cy="65" rx="6" ry="5" fill="#838383" fill-opacity="0.22"/>
<ellipse cx="166" cy="85" rx="6" ry="5" fill="#838383" fill-opacity="0.22"/>
<ellipse cx="166" cy="105" rx="6" ry="5" fill="#838383" fill-opacity="0.22"/>
<ellipse cx="166" cy="125" rx="6" ry="5" fill="#838383" fill-opacity="0.22"/>
<ellipse cx="166" cy="145" rx="6" ry="5" fill="#838383" fill-opacity="0.22"/>
<ellipse cx="166" cy="165" rx="6" ry="5" fill="#838383" fill-opacity="0.22"/>
<ellipse cx="166" cy="185" rx="6" ry="5" fill="#838383" fill-opacity="0.22"/>
<ellipse cx="166" cy="205" rx="6" ry="5" fill="#838383" fill-opacity="0.22"/>
<ellipse cx="166" cy="225" rx="6" ry="5" fill="#838383" fill-opacity="0.22"/>
<ellipse cx="166" cy="245" rx="6" ry="5" fill="#838383" fill-opacity="0.22"/>
<ellipse cx="166" cy="265" rx="6" ry="5" fill="#838383" fill-opacity="0.22"/>
<ellipse cx="166" cy="285" rx="6" ry="5" fill="#838383" fill-opacity="0.22"/>
<ellipse cx="166" cy="305" rx="6" ry="5" fill="#838383" fill-opacity="0.22"/>
<ellipse cx="166" cy="325" rx="6" ry="5" fill="#838383" fill-opacity="0.22"/>
<ellipse cx="166" cy="345" rx="6" ry="5" fill="#838383" fill-opacity="0.22"/>
<ellipse cx="166" cy="365" rx="6" ry="5" fill="#838383" fill-opacity="0.22"/>
<ellipse cx="186" cy="5" rx="6" ry="5" fill="#838383" fill-opacity="0.22"/>
<ellipse cx="186" cy="25" rx="6" ry="5" fill="#838383" fill-opacity="0.22"/>
<ellipse cx="186" cy="45" rx="6" ry="5" fill="#838383" fill-opacity="0.22"/>
<ellipse cx="186" cy="65" rx="6" ry="5" fill="#838383" fill-opacity="0.22"/>
<ellipse cx="186" cy="85" rx="6" ry="5" fill="#838383" fill-opacity="0.22"/>
<ellipse cx="186" cy="105" rx="6" ry="5" fill="#838383" fill-opacity="0.22"/>
<ellipse cx="186" cy="125" rx="6" ry="5" fill="#838383" fill-opacity="0.22"/>
<ellipse cx="186" cy="145" rx="6" ry="5" fill="#838383" fill-opacity="0.22"/>
<ellipse cx="186" cy="165" rx="6" ry="5" fill="#838383" fill-opacity="0.22"/>
<ellipse cx="186" cy="185" rx="6" ry="5" fill="#838383" fill-opacity="0.22"/>
<ellipse cx="186" cy="205" rx="6" ry="5" fill="#838383" fill-opacity="0.22"/>
<ellipse cx="186" cy="225" rx="6" ry="5" fill="#838383" fill-opacity="0.22"/>
<ellipse cx="186" cy="245" rx="6" ry="5" fill="#838383" fill-opacity="0.22"/>
<ellipse cx="186" cy="265" rx="6" ry="5" fill="#838383" fill-opacity="0.22"/>
<ellipse cx="186" cy="285" rx="6" ry="5" fill="#838383" fill-opacity="0.22"/>
<ellipse cx="186" cy="305" rx="6" ry="5" fill="#838383" fill-opacity="0.22"/>
<ellipse cx="186" cy="325" rx="6" ry="5" fill="#838383" fill-opacity="0.22"/>
<ellipse cx="186" cy="345" rx="6" ry="5" fill="#838383" fill-opacity="0.22"/>
<ellipse cx="186" cy="365" rx="6" ry="5" fill="#838383" fill-opacity="0.22"/>
<ellipse cx="206" cy="5" rx="6" ry="5" fill="#838383" fill-opacity="0.22"/>
<ellipse cx="206" cy="25" rx="6" ry="5" fill="#838383" fill-opacity="0.22"/>
<ellipse cx="206" cy="45" rx="6" ry="5" fill="#838383" fill-opacity="0.22"/>
<ellipse cx="206" cy="65" rx="6" ry="5" fill="#838383" fill-opacity="0.22"/>
<ellipse cx="206" cy="85" rx="6" ry="5" fill="#838383" fill-opacity="0.22"/>
<ellipse cx="206" cy="105" rx="6" ry="5" fill="#838383" fill-opacity="0.22"/>
<ellipse cx="206" cy="125" rx="6" ry="5" fill="#838383" fill-opacity="0.22"/>
<ellipse cx="206" cy="145" rx="6" ry="5" fill="#838383" fill-opacity="0.22"/>
<ellipse cx="206" cy="165" rx="6" ry="5" fill="#838383" fill-opacity="0.22"/>
<ellipse cx="206" cy="185" rx="6" ry="5" fill="#838383" fill-opacity="0.22"/>
<ellipse cx="206" cy="205" rx="6" ry="5" fill="#838383" fill-opacity="0.22"/>
<ellipse cx="206" cy="225" rx="6" ry="5" fill="#838383" fill-opacity="0.22"/>
<ellipse cx="206" cy="245" rx="6" ry="5" fill="#838383" fill-opacity="0.22"/>
<ellipse cx="206" cy="265" rx="6" ry="5" fill="#838383" fill-opacity="0.22"/>
<ellipse cx="206" cy="285" rx="6" ry="5" fill="#838383" fill-opacity="0.22"/>
<ellipse cx="206" cy="305" rx="6" ry="5" fill="#838383" fill-opacity="0.22"/>
<ellipse cx="206" cy="325" rx="6" ry="5" fill="#838383" fill-opacity="0.22"/>
<ellipse cx="206" cy="345" rx="6" ry="5" fill="#838383" fill-opacity="0.22"/>
<ellipse cx="206" cy="365" rx="6" ry="5" fill="#838383" fill-opacity="0.22"/>
<ellipse cx="226" cy="5" rx="6" ry="5" fill="#838383" fill-opacity="0.22"/>
<ellipse cx="226" cy="25" rx="6" ry="5" fill="#838383" fill-opacity="0.22"/>
<ellipse cx="226" cy="45" rx="6" ry="5" fill="#838383" fill-opacity="0.22"/>
<ellipse cx="226" cy="65" rx="6" ry="5" fill="#838383" fill-opacity="0.22"/>
<ellipse cx="226" cy="85" rx="6" ry="5" fill="#838383" fill-opacity="0.22"/>
<ellipse cx="226" cy="105" rx="6" ry="5" fill="#838383" fill-opacity="0.22"/>
<ellipse cx="226" cy="125" rx="6" ry="5" fill="#838383" fill-opacity="0.22"/>
<ellipse cx="226" cy="145" rx="6" ry="5" fill="#838383" fill-opacity="0.22"/>
<ellipse cx="226" cy="165" rx="6" ry="5" fill="#838383" fill-opacity="0.22"/>
<ellipse cx="226" cy="185" rx="6" ry="5" fill="#838383" fill-opacity="0.22"/>
<ellipse cx="226" cy="205" rx="6" ry="5" fill="#838383" fill-opacity="0.22"/>
<ellipse cx="226" cy="225" rx="6" ry="5" fill="#838383" fill-opacity="0.22"/>
<ellipse cx="226" cy="245" rx="6" ry="5" fill="#838383" fill-opacity="0.22"/>
<ellipse cx="226" cy="265" rx="6" ry="5" fill="#838383" fill-opacity="0.22"/>
<ellipse cx="226" cy="285" rx="6" ry="5" fill="#838383" fill-opacity="0.22"/>
<ellipse cx="226" cy="305" rx="6" ry="5" fill="#838383" fill-opacity="0.22"/>
<ellipse cx="226" cy="325" rx="6" ry="5" fill="#838383" fill-opacity="0.22"/>
<ellipse cx="226" cy="345" rx="6" ry="5" fill="#838383" fill-opacity="0.22"/>
<ellipse cx="226" cy="365" rx="6" ry="5" fill="#838383" fill-opacity="0.22"/>
<ellipse cx="246" cy="5" rx="6" ry="5" fill="#838383" fill-opacity="0.22"/>
<ellipse cx="246" cy="25" rx="6" ry="5" fill="#838383" fill-opacity="0.22"/>
<ellipse cx="246" cy="45" rx="6" ry="5" fill="#838383" fill-opacity="0.22"/>
<ellipse cx="246" cy="65" rx="6" ry="5" fill="#838383" fill-opacity="0.22"/>
<ellipse cx="246" cy="85" rx="6" ry="5" fill="#838383" fill-opacity="0.22"/>
<ellipse cx="246" cy="105" rx="6" ry="5" fill="#838383" fill-opacity="0.22"/>
<ellipse cx="246" cy="125" rx="6" ry="5" fill="#838383" fill-opacity="0.22"/>
<ellipse cx="246" cy="145" rx="6" ry="5" fill="#838383" fill-opacity="0.22"/>
<ellipse cx="246" cy="165" rx="6" ry="5" fill="#838383" fill-opacity="0.22"/>
<ellipse cx="246" cy="185" rx="6" ry="5" fill="#838383" fill-opacity="0.22"/>
<ellipse cx="246" cy="205" rx="6" ry="5" fill="#838383" fill-opacity="0.22"/>
<ellipse cx="246" cy="225" rx="6" ry="5" fill="#838383" fill-opacity="0.22"/>
<ellipse cx="246" cy="245" rx="6" ry="5" fill="#838383" fill-opacity="0.22"/>
<ellipse cx="246" cy="265" rx="6" ry="5" fill="#838383" fill-opacity="0.22"/>
<ellipse cx="246" cy="285" rx="6" ry="5" fill="#838383" fill-opacity="0.22"/>
<ellipse cx="246" cy="305" rx="6" ry="5" fill="#838383" fill-opacity="0.22"/>
<ellipse cx="246" cy="325" rx="6" ry="5" fill="#838383" fill-opacity="0.22"/>
<ellipse cx="246" cy="345" rx="6" ry="5" fill="#838383" fill-opacity="0.22"/>
<ellipse cx="246" cy="365" rx="6" ry="5" fill="#838383" fill-opacity="0.22"/>
<ellipse cx="266" cy="5" rx="6" ry="5" fill="#838383" fill-opacity="0.22"/>
<ellipse cx="266" cy="25" rx="6" ry="5" fill="#838383" fill-opacity="0.22"/>
<ellipse cx="266" cy="45" rx="6" ry="5" fill="#838383" fill-opacity="0.22"/>
<ellipse cx="266" cy="65" rx="6" ry="5" fill="#838383" fill-opacity="0.22"/>
<ellipse cx="266" cy="85" rx="6" ry="5" fill="#838383" fill-opacity="0.22"/>
<ellipse cx="266" cy="105" rx="6" ry="5" fill="#838383" fill-opacity="0.22"/>
<ellipse cx="266" cy="125" rx="6" ry="5" fill="#838383" fill-opacity="0.22"/>
<ellipse cx="266" cy="145" rx="6" ry="5" fill="#838383" fill-opacity="0.22"/>
<ellipse cx="266" cy="165" rx="6" ry="5" fill="#838383" fill-opacity="0.22"/>
<ellipse cx="266" cy="185" rx="6" ry="5" fill="#838383" fill-opacity="0.22"/>
<ellipse cx="266" cy="205" rx="6" ry="5" fill="#838383" fill-opacity="0.22"/>
<ellipse cx="266" cy="225" rx="6" ry="5" fill="#838383" fill-opacity="0.22"/>
<ellipse cx="266" cy="245" rx="6" ry="5" fill="#838383" fill-opacity="0.22"/>
<ellipse cx="266" cy="265" rx="6" ry="5" fill="#838383" fill-opacity="0.22"/>
<ellipse cx="266" cy="285" rx="6" ry="5" fill="#838383" fill-opacity="0.22"/>
<ellipse cx="266" cy="305" rx="6" ry="5" fill="#838383" fill-opacity="0.22"/>
<ellipse cx="266" cy="325" rx="6" ry="5" fill="#838383" fill-opacity="0.22"/>
<ellipse cx="266" cy="345" rx="6" ry="5" fill="#838383" fill-opacity="0.22"/>
<ellipse cx="266" cy="365" rx="6" ry="5" fill="#838383" fill-opacity="0.22"/>
<ellipse cx="286" cy="5" rx="6" ry="5" fill="#838383" fill-opacity="0.22"/>
<ellipse cx="286" cy="25" rx="6" ry="5" fill="#838383" fill-opacity="0.22"/>
<ellipse cx="286" cy="45" rx="6" ry="5" fill="#838383" fill-opacity="0.22"/>
<ellipse cx="286" cy="65" rx="6" ry="5" fill="#838383" fill-opacity="0.22"/>
<ellipse cx="286" cy="85" rx="6" ry="5" fill="#838383" fill-opacity="0.22"/>
<ellipse cx="286" cy="105" rx="6" ry="5" fill="#838383" fill-opacity="0.22"/>
<ellipse cx="286" cy="125" rx="6" ry="5" fill="#838383" fill-opacity="0.22"/>
<ellipse cx="286" cy="145" rx="6" ry="5" fill="#838383" fill-opacity="0.22"/>
<ellipse cx="286" cy="165" rx="6" ry="5" fill="#838383" fill-opacity="0.22"/>
<ellipse cx="286" cy="185" rx="6" ry="5" fill="#838383" fill-opacity="0.22"/>
<ellipse cx="286" cy="205" rx="6" ry="5" fill="#838383" fill-opacity="0.22"/>
<ellipse cx="286" cy="225" rx="6" ry="5" fill="#838383" fill-opacity="0.22"/>
<ellipse cx="286" cy="245" rx="6" ry="5" fill="#838383" fill-opacity="0.22"/>
<ellipse cx="286" cy="265" rx="6" ry="5" fill="#838383" fill-opacity="0.22"/>
<ellipse cx="286" cy="285" rx="6" ry="5" fill="#838383" fill-opacity="0.22"/>
<ellipse cx="286" cy="305" rx="6" ry="5" fill="#838383" fill-opacity="0.22"/>
<ellipse cx="286" cy="325" rx="6" ry="5" fill="#838383" fill-opacity="0.22"/>
<ellipse cx="286" cy="345" rx="6" ry="5" fill="#838383" fill-opacity="0.22"/>
<ellipse cx="286" cy="365" rx="6" ry="5" fill="#838383" fill-opacity="0.22"/>
<ellipse cx="306" cy="5" rx="6" ry="5" fill="#838383" fill-opacity="0.22"/>
<ellipse cx="306" cy="25" rx="6" ry="5" fill="#838383" fill-opacity="0.22"/>
<ellipse cx="306" cy="45" rx="6" ry="5" fill="#838383" fill-opacity="0.22"/>
<ellipse cx="306" cy="65" rx="6" ry="5" fill="#838383" fill-opacity="0.22"/>
<ellipse cx="306" cy="85" rx="6" ry="5" fill="#838383" fill-opacity="0.22"/>
<ellipse cx="306" cy="105" rx="6" ry="5" fill="#838383" fill-opacity="0.22"/>
<ellipse cx="306" cy="125" rx="6" ry="5" fill="#838383" fill-opacity="0.22"/>
<ellipse cx="306" cy="145" rx="6" ry="5" fill="#838383" fill-opacity="0.22"/>
<ellipse cx="306" cy="165" rx="6" ry="5" fill="#838383" fill-opacity="0.22"/>
<ellipse cx="306" cy="185" rx="6" ry="5" fill="#838383" fill-opacity="0.22"/>
<ellipse cx="306" cy="205" rx="6" ry="5" fill="#838383" fill-opacity="0.22"/>
<ellipse cx="306" cy="225" rx="6" ry="5" fill="#838383" fill-opacity="0.22"/>
<ellipse cx="306" cy="245" rx="6" ry="5" fill="#838383" fill-opacity="0.22"/>
<ellipse cx="306" cy="265" rx="6" ry="5" fill="#838383" fill-opacity="0.22"/>
<ellipse cx="306" cy="285" rx="6" ry="5" fill="#838383" fill-opacity="0.22"/>
<ellipse cx="306" cy="305" rx="6" ry="5" fill="#838383" fill-opacity="0.22"/>
<ellipse cx="306" cy="325" rx="6" ry="5" fill="#838383" fill-opacity="0.22"/>
<ellipse cx="306" cy="345" rx="6" ry="5" fill="#838383" fill-opacity="0.22"/>
<ellipse cx="306" cy="365" rx="6" ry="5" fill="#838383" fill-opacity="0.22"/>
<ellipse cx="326" cy="5" rx="6" ry="5" fill="#838383" fill-opacity="0.22"/>
<ellipse cx="326" cy="25" rx="6" ry="5" fill="#838383" fill-opacity="0.22"/>
<ellipse cx="326" cy="45" rx="6" ry="5" fill="#838383" fill-opacity="0.22"/>
<ellipse cx="326" cy="65" rx="6" ry="5" fill="#838383" fill-opacity="0.22"/>
<ellipse cx="326" cy="85" rx="6" ry="5" fill="#838383" fill-opacity="0.22"/>
<ellipse cx="326" cy="105" rx="6" ry="5" fill="#838383" fill-opacity="0.22"/>
<ellipse cx="326" cy="125" rx="6" ry="5" fill="#838383" fill-opacity="0.22"/>
<ellipse cx="326" cy="145" rx="6" ry="5" fill="#838383" fill-opacity="0.22"/>
<ellipse cx="326" cy="165" rx="6" ry="5" fill="#838383" fill-opacity="0.22"/>
<ellipse cx="326" cy="185" rx="6" ry="5" fill="#838383" fill-opacity="0.22"/>
<ellipse cx="326" cy="205" rx="6" ry="5" fill="#838383" fill-opacity="0.22"/>
<ellipse cx="326" cy="225" rx="6" ry="5" fill="#838383" fill-opacity="0.22"/>
<ellipse cx="326" cy="245" rx="6" ry="5" fill="#838383" fill-opacity="0.22"/>
<ellipse cx="326" cy="265" rx="6" ry="5" fill="#838383" fill-opacity="0.22"/>
<ellipse cx="326" cy="285" rx="6" ry="5" fill="#838383" fill-opacity="0.22"/>
<ellipse cx="326" cy="305" rx="6" ry="5" fill="#838383" fill-opacity="0.22"/>
<ellipse cx="326" cy="325" rx="6" ry="5" fill="#838383" fill-opacity="0.22"/>
<ellipse cx="326" cy="345" rx="6" ry="5" fill="#838383" fill-opacity="0.22"/>
<ellipse cx="326" cy="365" rx="6" ry="5" fill="#838383" fill-opacity="0.22"/>
</svg>
